<svg enable-background="new 0 0 512 512" viewBox="0 0 512 512" xmlns="http://www.w3.org/2000/svg">
    <style type="text/css">
<![CDATA[
	.st0{fill:#4B4B4B;}
]]>
</style>
    <path
        class="st0"
        d="m493.61 428.28-280.12-274.89c4.047-7.141 7.359-14.609 9.703-22.313 0.25-2.469 0.75-5.031 1.656-7.641 0.484-1.469 0.891-2.969 1.297-4.453 6.406-34.656-3.766-71.766-30.563-98.563-8.469-8.469-17.984-15.266-28.109-20.422-0.5 0-1 0.063-1.484 0.172l-9 2.203c-1.688 0.438-3.141 1.5-4.016 3-0.875 1.484-1.109 3.281-0.641 4.953l19.344 69.469c0.719 2.594-0.25 5.344-2.422 6.922l-43.953 31.922c-1.344 0.953-3 1.375-4.641 1.156l-46.703-6.438c-2.547-0.344-4.625-2.156-5.313-4.625l-20.42-73.373c-0.938-3.328-4.344-5.344-7.703-4.516l-11.813 2.891c-0.609 0.156-1.156 0.469-1.703 0.797-13.562 19.015-20.406 41.344-20.5 63.703 0.203 28.063 10.953 56.063 32.359 77.469 25.828 25.813 61.188 35.938 94.766 31.203 4.844-0.703 9.266-1.188 13.328-1.469 3.875-1.063 7.688-2.453 11.469-3.969 46.969 47.563 277.77 284.24 277.77 284.24 15.859 15.859 41.563 15.859 57.422 0s15.859-41.562-1e-3 -57.422zm-14.359 43.063c-7.922 7.938-20.766 7.938-28.703 0-7.938-7.922-7.938-20.781 0-28.719 7.938-7.922 20.781-7.922 28.703 0 7.938 7.938 7.938 20.797 0 28.719z"
    />
    <polygon
        class="st0"
        points="406.26 136.31 451.8 124.76 495.62 48.216 474.39 28.076 453.17 7.935 379.03 55.716 369.89 101.76 291.19 184.72 327 219.84"
    />
    <path
        class="st0"
        d="m178.09 280.37c-9.063 7.844-21.906-1.875-38.719 15.859l-111.12 117.09c-22.219 23.406-21.25 60.406 2.156 82.625s60.391 21.25 82.609-2.156l111.14-117.12c16.813-17.719 6.453-30.016 13.797-39.484 1.5-1.953 2.875-3.297 4.25-4.313-21.031-21.531-41.156-42.125-58.578-59.922-0.734 2.469-2.406 4.735-5.531 7.422z"
    />
</svg>
