<svg viewBox="0 0 499.01 512" xmlns="http://www.w3.org/2000/svg">
    <defs>
        <style>.cls-1 {fill: #4b4b4b;}</style>
    </defs>
    <path
        class="cls-1"
        d="m487.1,428.28L206.98,153.39c4.05-7.14,7.36-14.61,9.7-22.31.25-2.47.75-5.03,1.66-7.64.48-1.47.89-2.97,1.3-4.45,6.41-34.66-3.77-71.77-30.56-98.56-8.47-8.47-17.98-15.27-28.11-20.42-.5,0-1,.06-1.48.17l-9,2.2c-1.69.44-3.14,1.5-4.02,3-.88,1.48-1.11,3.28-.64,4.95l19.34,69.47c.72,2.59-.25,5.34-2.42,6.92l-43.95,31.92c-1.34.95-3,1.38-4.64,1.16l-46.7-6.44c-2.55-.34-4.62-2.16-5.31-4.62l-20.42-73.37c-.94-3.33-4.34-5.34-7.7-4.52l-11.81,2.89c-.61.16-1.16.47-1.7.8C6.94,53.55.09,75.88,0,98.24c.2,28.06,10.95,56.06,32.36,77.47,25.83,25.81,61.19,35.94,94.77,31.2,4.84-.7,9.27-1.19,13.33-1.47,3.88-1.06,7.69-2.45,11.47-3.97,46.97,47.56,277.77,284.24,277.77,284.24,15.86,15.86,41.56,15.86,57.42,0s15.86-41.56,0-57.42h0Zm-14.36,43.06c-7.92,7.94-20.77,7.94-28.7,0-7.94-7.92-7.94-20.78,0-28.72,7.94-7.92,20.78-7.92,28.7,0s7.94,20.8,0,28.72Z"
    />
    <polygon
        class="cls-1"
        points="399.75 136.31 445.29 124.76 489.11 48.22 467.88 28.08 446.66 7.94 372.52 55.72 363.38 101.76 284.68 184.72 320.49 219.84"
    />
    <path
        class="cls-1"
        d="m171.58 280.37c-9.06 7.84-21.91-1.88-38.72 15.86l-111.12 117.09c-22.22 23.41-21.25 60.41 2.16 82.62 23.41 22.22 60.39 21.25 82.61-2.16l111.14-117.12c16.81-17.72 6.45-30.02 13.8-39.48 1.5-1.95 2.88-3.3 4.25-4.31-21.03-21.53-41.16-42.12-58.58-59.92-0.73 2.47-2.41 4.73-5.53 7.42z"
    />
</svg>
